<svg width="15" height="11" viewBox="0 0 15 11" fill="none" xmlns="http://www.w3.org/2000/svg">
<path d="M2.73565 0C2.15036 0 1.6755 0.461914 1.6755 1.03125V2.0625H0.615347C0.420986 2.0625 0.261963 2.21719 0.261963 2.40625C0.261963 2.59531 0.420986 2.75 0.615347 2.75H1.6755H6.2695C6.46386 2.75 6.62288 2.90469 6.62288 3.09375C6.62288 3.28281 6.46386 3.4375 6.2695 3.4375H1.6755H1.32212C1.12775 3.4375 0.968731 3.59219 0.968731 3.78125C0.968731 3.97031 1.12775 4.125 1.32212 4.125H1.6755H5.56273C5.75709 4.125 5.91611 4.27969 5.91611 4.46875C5.91611 4.65781 5.75709 4.8125 5.56273 4.8125H1.6755H0.615347C0.420986 4.8125 0.261963 4.96719 0.261963 5.15625C0.261963 5.34531 0.420986 5.5 0.615347 5.5H1.6755H4.85596C5.05032 5.5 5.20934 5.65469 5.20934 5.84375C5.20934 6.03281 5.05032 6.1875 4.85596 6.1875H1.6755V8.9375C1.6755 10.0762 2.62522 11 3.79581 11C4.96639 11 5.91611 10.0762 5.91611 8.9375H8.74319C8.74319 10.0762 9.69291 11 10.8635 11C12.0341 11 12.9838 10.0762 12.9838 8.9375H13.6906C14.0815 8.9375 14.3973 8.63027 14.3973 8.25C14.3973 7.86973 14.0815 7.5625 13.6906 7.5625V6.1875V5.5V5.09824C13.6906 4.73301 13.5426 4.38281 13.2775 4.125L11.5703 2.46426C11.3052 2.20645 10.9452 2.0625 10.5697 2.0625H9.44995V1.03125C9.44995 0.461914 8.97509 0 8.3898 0H2.73565ZM12.277 5.09824V5.5H9.44995V3.4375H10.5697L12.277 5.09824ZM3.79581 7.90625C4.07698 7.90625 4.34663 8.0149 4.54545 8.2083C4.74426 8.40169 4.85596 8.664 4.85596 8.9375C4.85596 9.211 4.74426 9.47331 4.54545 9.6667C4.34663 9.8601 4.07698 9.96875 3.79581 9.96875C3.51464 9.96875 3.24498 9.8601 3.04616 9.6667C2.84735 9.47331 2.73565 9.211 2.73565 8.9375C2.73565 8.664 2.84735 8.40169 3.04616 8.2083C3.24498 8.0149 3.51464 7.90625 3.79581 7.90625ZM9.80334 8.9375C9.80334 8.664 9.91503 8.40169 10.1138 8.2083C10.3127 8.0149 10.5823 7.90625 10.8635 7.90625C11.1447 7.90625 11.4143 8.0149 11.6131 8.2083C11.8119 8.40169 11.9236 8.664 11.9236 8.9375C11.9236 9.211 11.8119 9.47331 11.6131 9.6667C11.4143 9.8601 11.1447 9.96875 10.8635 9.96875C10.5823 9.96875 10.3127 9.8601 10.1138 9.6667C9.91503 9.47331 9.80334 9.211 9.80334 8.9375Z" fill="url(#paint0_linear_640_107)"/>
<defs>
<linearGradient id="paint0_linear_640_107" x1="7.32965" y1="0" x2="7.32965" y2="11" gradientUnits="userSpaceOnUse">
<stop stop-color="#A80DF1"/>
<stop offset="0.485" stop-color="#F700A8"/>
<stop offset="1" stop-color="#FF8000"/>
</linearGradient>
</defs>
</svg>
