<svg width="15" height="11" viewBox="0 0 15 11" fill="none" xmlns="http://www.w3.org/2000/svg">
<path d="M2.08607 0C1.21004 0 0.497803 0.75354 0.497803 1.68037V8.40184C0.497803 9.32867 1.21004 10.0822 2.08607 10.0822H13.2039C14.0799 10.0822 14.7922 9.32867 14.7922 8.40184V1.68037C14.7922 0.75354 14.0799 0 13.2039 0H2.08607ZM2.48313 1.68037H3.27726C3.49565 1.68037 3.67433 1.86941 3.67433 2.10046V2.94064C3.67433 3.1717 3.49565 3.36074 3.27726 3.36074H2.48313C2.26475 3.36074 2.08607 3.1717 2.08607 2.94064V2.10046C2.08607 1.86941 2.26475 1.68037 2.48313 1.68037ZM2.08607 4.62101C2.08607 4.38996 2.26475 4.20092 2.48313 4.20092H3.27726C3.49565 4.20092 3.67433 4.38996 3.67433 4.62101V5.4612C3.67433 5.69225 3.49565 5.88129 3.27726 5.88129H2.48313C2.26475 5.88129 2.08607 5.69225 2.08607 5.4612V4.62101ZM2.48313 6.72147H3.27726C3.49565 6.72147 3.67433 6.91051 3.67433 7.14157V7.98175C3.67433 8.2128 3.49565 8.40184 3.27726 8.40184H2.48313C2.26475 8.40184 2.08607 8.2128 2.08607 7.98175V7.14157C2.08607 6.91051 2.26475 6.72147 2.48313 6.72147ZM4.46846 2.10046C4.46846 1.86941 4.64714 1.68037 4.86553 1.68037H5.65966C5.87805 1.68037 6.05673 1.86941 6.05673 2.10046V2.94064C6.05673 3.1717 5.87805 3.36074 5.65966 3.36074H4.86553C4.64714 3.36074 4.46846 3.1717 4.46846 2.94064V2.10046ZM4.86553 4.20092H5.65966C5.87805 4.20092 6.05673 4.38996 6.05673 4.62101V5.4612C6.05673 5.69225 5.87805 5.88129 5.65966 5.88129H4.86553C4.64714 5.88129 4.46846 5.69225 4.46846 5.4612V4.62101C4.46846 4.38996 4.64714 4.20092 4.86553 4.20092ZM4.46846 7.14157C4.46846 6.91051 4.64714 6.72147 4.86553 6.72147H10.4245C10.6428 6.72147 10.8215 6.91051 10.8215 7.14157V7.98175C10.8215 8.2128 10.6428 8.40184 10.4245 8.40184H4.86553C4.64714 8.40184 4.46846 8.2128 4.46846 7.98175V7.14157ZM7.24792 1.68037H8.04206C8.26044 1.68037 8.43912 1.86941 8.43912 2.10046V2.94064C8.43912 3.1717 8.26044 3.36074 8.04206 3.36074H7.24792C7.02954 3.36074 6.85086 3.1717 6.85086 2.94064V2.10046C6.85086 1.86941 7.02954 1.68037 7.24792 1.68037ZM6.85086 4.62101C6.85086 4.38996 7.02954 4.20092 7.24792 4.20092H8.04206C8.26044 4.20092 8.43912 4.38996 8.43912 4.62101V5.4612C8.43912 5.69225 8.26044 5.88129 8.04206 5.88129H7.24792C7.02954 5.88129 6.85086 5.69225 6.85086 5.4612V4.62101ZM9.63032 1.68037H10.4245C10.6428 1.68037 10.8215 1.86941 10.8215 2.10046V2.94064C10.8215 3.1717 10.6428 3.36074 10.4245 3.36074H9.63032C9.41193 3.36074 9.23325 3.1717 9.23325 2.94064V2.10046C9.23325 1.86941 9.41193 1.68037 9.63032 1.68037ZM9.23325 4.62101C9.23325 4.38996 9.41193 4.20092 9.63032 4.20092H10.4245C10.6428 4.20092 10.8215 4.38996 10.8215 4.62101V5.4612C10.8215 5.69225 10.6428 5.88129 10.4245 5.88129H9.63032C9.41193 5.88129 9.23325 5.69225 9.23325 5.4612V4.62101ZM12.0127 1.68037H12.8068C13.0252 1.68037 13.2039 1.86941 13.2039 2.10046V2.94064C13.2039 3.1717 13.0252 3.36074 12.8068 3.36074H12.0127C11.7943 3.36074 11.6156 3.1717 11.6156 2.94064V2.10046C11.6156 1.86941 11.7943 1.68037 12.0127 1.68037ZM11.6156 4.62101C11.6156 4.38996 11.7943 4.20092 12.0127 4.20092H12.8068C13.0252 4.20092 13.2039 4.38996 13.2039 4.62101V5.4612C13.2039 5.69225 13.0252 5.88129 12.8068 5.88129H12.0127C11.7943 5.88129 11.6156 5.69225 11.6156 5.4612V4.62101ZM12.0127 6.72147H12.8068C13.0252 6.72147 13.2039 6.91051 13.2039 7.14157V7.98175C13.2039 8.2128 13.0252 8.40184 12.8068 8.40184H12.0127C11.7943 8.40184 11.6156 8.2128 11.6156 7.98175V7.14157C11.6156 6.91051 11.7943 6.72147 12.0127 6.72147Z" fill="url(#paint0_linear_640_100)"/>
<defs>
<linearGradient id="paint0_linear_640_100" x1="7.64499" y1="0" x2="7.64499" y2="10.0822" gradientUnits="userSpaceOnUse">
<stop stop-color="#0D3FF1"/>
<stop offset="1" stop-color="#A80DF1"/>
</linearGradient>
</defs>
</svg>
