<svg width="15" height="11" viewBox="0 0 15 11" fill="none" xmlns="http://www.w3.org/2000/svg">
<path d="M2.73817 2.75C2.73817 2.02065 3.03925 1.32118 3.57519 0.805456C4.11112 0.289731 4.838 0 5.59593 0C6.35385 0 7.08073 0.289731 7.61667 0.805456C8.1526 1.32118 8.45369 2.02065 8.45369 2.75C8.45369 3.47935 8.1526 4.17882 7.61667 4.69454C7.08073 5.21027 6.35385 5.5 5.59593 5.5C4.838 5.5 4.11112 5.21027 3.57519 4.69454C3.03925 4.17882 2.73817 3.47935 2.73817 2.75ZM0.594849 10.3619C0.594849 8.2457 2.37648 6.53125 4.57562 6.53125H6.61624C8.81537 6.53125 10.597 8.2457 10.597 10.3619C10.597 10.7143 10.3001 11 9.93392 11H1.25794C0.891788 11 0.594849 10.7143 0.594849 10.3619ZM11.8473 6.70312V5.32812H10.4184C10.1215 5.32812 9.88256 5.09824 9.88256 4.8125C9.88256 4.52676 10.1215 4.29688 10.4184 4.29688H11.8473V2.92188C11.8473 2.63613 12.0862 2.40625 12.3831 2.40625C12.68 2.40625 12.9189 2.63613 12.9189 2.92188V4.29688H14.3478C14.6448 4.29688 14.8836 4.52676 14.8836 4.8125C14.8836 5.09824 14.6448 5.32812 14.3478 5.32812H12.9189V6.70312C12.9189 6.98887 12.68 7.21875 12.3831 7.21875C12.0862 7.21875 11.8473 6.98887 11.8473 6.70312Z" fill="url(#paint0_linear_640_93)"/>
<defs>
<linearGradient id="paint0_linear_640_93" x1="7.73925" y1="0" x2="7.73925" y2="11" gradientUnits="userSpaceOnUse">
<stop stop-color="#F700A8"/>
<stop offset="1" stop-color="#FF8000"/>
</linearGradient>
</defs>
</svg>
